<?xml version="1.0" encoding="UTF-8"?>
<svg width="37px" height="35px" viewBox="0 0 37 35" version="1.1" xmlns="http://www.w3.org/2000/svg" xmlns:xlink="http://www.w3.org/1999/xlink">
    <!-- Generator: Sketch 48.1 (47250) - http://www.bohemiancoding.com/sketch -->
    <title>icons8-adobe-photoshop</title>
    <desc>Created with Sketch.</desc>
    <defs></defs>
    <g id="Desktop-HD" stroke="none" stroke-width="1" fill="none" fill-rule="evenodd" transform="translate(-830.000000, -303.000000)">
        <g id="icons8-adobe-photoshop" transform="translate(830.000000, 303.000000)">
            <g>
                <path d="M0,3.88888889 C0,1.74125 1.84075,0 4.11111111,0 L32.8888889,0 C35.15925,0 37,1.74125 37,3.88888889 L37,31.1111111 C37,33.25875 35.15925,35 32.8888889,35 L4.11111111,35 C1.84075,35 0,33.25875 0,31.1111111 L0,3.88888889 Z" id="Shape" fill="#03A9F4" fill-rule="nonzero"></path>
                <g id="Group" transform="translate(3.083333, 2.916667)" fill="#020F16" fill-rule="nonzero">
                    <path d="M11.322,9.89138889 L9.26438889,9.89138889 L9.26438889,14.2022222 L11.2921944,14.2022222 C11.8543889,14.2022222 12.2891389,14.0281944 12.5974722,13.6801389 C12.9058056,13.3320833 13.0589444,12.8255556 13.0589444,12.1605556 C13.0589444,11.4702778 12.9016944,10.9219444 12.5871944,10.5136111 C12.2726944,10.1052778 11.8502778,9.89819444 11.322,9.89138889 Z" id="Shape"></path>
                    <path d="M0,0 L0,29.1666667 L30.8333333,29.1666667 L30.8333333,0 L0,0 Z M14.7640278,15.3504167 C13.9150833,16.1359722 12.73725,16.5277778 11.2315556,16.5277778 L9.26438889,16.5277778 L9.26438889,21.3888889 L6.31363889,21.3888889 L6.31363889,7.56486111 L11.2921944,7.56486111 C12.73725,7.56486111 13.8904167,7.98972222 14.7496389,8.8375 C15.6088611,9.68527778 16.0395,10.7868056 16.0395,12.1411111 C16.0395,13.4954167 15.614,14.5648611 14.7640278,15.3504167 Z M24.3398333,20.7433333 C23.6111389,21.3004167 22.65325,21.5784722 21.46925,21.5784722 C20.6727222,21.5784722 19.9697222,21.4316667 19.3612778,21.1370833 C18.7528333,20.8425 18.2749167,20.4322222 17.9306111,19.9072222 C17.5863056,19.3822222 17.4136389,18.8154167 17.4136389,18.2077778 L20.1136111,18.2077778 C20.128,18.6754167 20.2420833,19.0273611 20.4599722,19.2616667 C20.6778611,19.4959722 21.0334722,19.6126389 21.5288611,19.6126389 C22.2914722,19.6126389 22.6727778,19.2869444 22.6727778,18.6345833 C22.6727778,18.4070833 22.5576667,18.1961111 22.3264167,18.0036111 C22.0951667,17.8111111 21.5833333,17.5505556 20.7868056,17.2209722 C19.6161667,16.7718056 18.8114167,16.3070833 18.3725556,15.8248611 C17.9336944,15.3426389 17.7147778,14.7456944 17.7147778,14.0301389 C17.7147778,13.1308333 18.0580556,12.3890278 18.7435833,11.80375 C19.4291111,11.2184722 20.3386944,10.9258333 21.4682222,10.9258333 C22.6583889,10.9258333 23.6121667,11.2175 24.3285278,11.7988889 C25.0448889,12.3802778 25.4025556,13.1629167 25.4025556,14.1438889 L22.5617778,14.1438889 C22.5617778,13.30875 22.1948611,12.8906944 21.4579444,12.8906944 C21.1568056,12.8906944 20.9101389,12.9791667 20.7148611,13.1561111 C20.5195833,13.3330556 20.424,13.5809722 20.424,13.8969444 C20.424,14.1244444 20.5308889,14.3256944 20.7456944,14.4997222 C20.9605,14.67375 21.4641111,14.9226389 22.2616667,15.2454167 C23.4199722,15.6508333 24.2370556,16.1019444 24.716,16.59875 C25.1949444,17.0955556 25.4333889,17.7401389 25.4333889,18.5305556 C25.4333889,19.4493056 25.0685278,20.18625 24.3398333,20.7433333 Z" id="Shape"></path>
                </g>
            </g>
        </g>
    </g>
</svg>